<?xml version="1.0" encoding="UTF-8"?>
<!DOCTYPE svg PUBLIC "-//W3C//DTD SVG 1.1//EN" "http://www.w3.org/Graphics/SVG/1.1/DTD/svg11.dtd">
<!-- Creator: CorelDRAW X5 -->
<svg xmlns="http://www.w3.org/2000/svg" xml:space="preserve" width="361.244mm" height="270.933mm" style="shape-rendering:geometricPrecision; text-rendering:geometricPrecision; image-rendering:optimizeQuality; fill-rule:evenodd; clip-rule:evenodd"
viewBox="0 0 36124 27093"
 xmlns:xlink="http://www.w3.org/1999/xlink">
 <defs>
  <style type="text/css">
   <![CDATA[
    .fil0 {fill:rgba(255,255,255,0.0)}
    .fil3 {fill:url(#id0)}
    .fil2 {fill:url(#id1)}
    .fil1 {fill:url(#id2)}
   ]]>
  </style>
  <linearGradient id="id0" gradientUnits="userSpaceOnUse" x1="18154.6" y1="14559.3" x2="18154.6" y2="6023.61">
   <stop offset="0" style="stop-color:white"/>
   <stop offset="1" style="stop-color:white"/>
  </linearGradient>
  <linearGradient id="id1" gradientUnits="userSpaceOnUse" xlink:href="#id0" x1="16545.3" y1="18450" x2="16545.3" y2="3031.42">
  </linearGradient>
  <linearGradient id="id2" gradientUnits="userSpaceOnUse" xlink:href="#id0" x1="16545.3" y1="18378.9" x2="16545.3" y2="3102.58">
  </linearGradient>
 </defs>
 <g id="Layer_x0020_1">
  <metadata id="CorelCorpID_0Corel-Layer"/>
  <rect class="fil0" x="10654" y="6138" width="14817" height="14817"/>
  <path class="fil1" d="M24571 13468l171 390 -1666 883 -655 -24 -6 -15 -5641 2464 158 362 -391 171 -419 -31 -1168 886 -1 -3 -1 1 -6 3 -1 0 -10 5 -1 0 -1 0 -5 2 -1 0 -1 0c-5,2 -10,5 -14,7l-1 0 0 0 -1 0c-6,3 -12,6 -19,8l-1762 770c-421,184 -916,-10 -1100,-431l0 0c-184,-421 10,-916 431,-1100l1762 -770c6,-3 12,-5 19,-8l1 0 0 0 1 0c5,-2 10,-4 15,-6l1 0 1 0 5 -2 1 0 1 0 11 -4 1 0 6 -2 1 0 -1 -3 1444 -255 262 -329 391 -171 178 408 5641 -2464 -6 -15 427 -497 1779 -622 171 390z"/>
  <path class="fil2" d="M22167 18542c-22,-33 -44,-64 -66,-90 -128,-152 -258,-214 -401,-282l-5898 -2735c-205,-95 -756,-343 -1151,-533 -438,-210 -640,-376 -1140,-164 -357,128 -791,125 -1173,-308 -239,-271 -421,-669 -211,-1039l573 598c79,83 395,138 581,-39 197,-187 319,-485 155,-665 -171,-187 -515,-495 -638,-637 457,-209 1039,12 1279,363 196,287 211,649 783,912l3402 1571c646,280 2368,1146 3019,1402 253,100 853,446 1148,499 366,66 562,-124 933,39 410,180 548,540 531,860 -28,510 -501,890 -1008,818 -355,-51 -534,-297 -718,-570zm1310 -72c48,-107 59,-218 41,-320 -37,-207 -196,-378 -415,-412 -377,-58 -655,271 -576,612 67,290 339,468 632,379 138,-42 263,-135 318,-259z"/>
  <path class="fil3" d="M17646 7565c390,138 1102,-136 1570,-163 -23,407 -91,538 -265,661 292,0 510,-74 717,-82 -16,336 -102,415 -255,552 25,191 954,1033 913,1292 -30,192 -145,329 -129,649 18,348 306,434 656,346 652,-163 932,-478 1165,-761 110,904 -300,1220 -565,1391 1124,-75 2242,-1496 2533,-1975 -56,880 -231,1304 -621,1907 -324,501 -664,852 -1150,1203 -342,247 -172,165 -441,779 -524,1196 -1310,1041 -2474,964 -337,-830 -624,-824 -1635,-929 -621,-64 -1126,-576 -1318,-1149 -266,89 -547,399 -551,903 -3475,3 -2512,-7130 1848,-5588zm692 3171c-1,9 -2,19 -2,28 0,145 118,263 263,263 145,0 263,-118 263,-263 0,-10 -1,-19 -2,-28l-522 0z"/>
 </g>
</svg>
